<svg version="1.1" xmlns="http://www.w3.org/2000/svg" xmlns:xlink="http://www.w3.org/1999/xlink" x="0px" y="0px"
            viewBox="0 0 2000 935" xml:space="preserve" class="w-[140%] sm:w-full">
            <linearGradient id="gradient_SVG_1_" class="custom-svg-linear-gradient" gradientUnits="userSpaceOnUse"
                x1="1608.6167" y1="668.754" x2="1197.4358" y2="257.5732">
                <stop offset="3.745963e-03" style="stop-color:#5349FF" />
                <stop offset="1" style="stop-color:#0088CC" />
            </linearGradient>

            <linearGradient id="gradient_SVG_2_" class="custom-svg-linear-gradient" gradientUnits="userSpaceOnUse"
                x1="1621.6152" y1="666.8627" x2="1207.4606" y2="252.708">
                <stop offset="3.745963e-03" style="stop-color:#5349FF" />
                <stop offset="1" style="stop-color:#0088CC" />
            </linearGradient>

            <linearGradient id="gradient_SVG_3_" class="custom-svg-linear-gradient" gradientUnits="userSpaceOnUse"
                x1="1557.4893" y1="663.6315" x2="1192.9751" y2="299.1174">
                <stop offset="3.745963e-03" style="stop-color:#5349FF" />
                <stop offset="1" style="stop-color:#0088CC" />
            </linearGradient>
            <g class="invisible sm:visible">
                <g>
                    <!-- Start -->
                    <path id="st0_start" fill="#DBEAF2"
                        d="M1642,423.5c9.3,66.75-24.25,126.31-33,128c5.86,0.61-66.08,138.04-289,165
                    c-218.43,26.42-240.8-178.27-236-187.26c0,0-1.72-21.98,7-57.74c0,0,16.97-79.91,153-161s257.67-66.4,257.67-66.4
                    s77.61-10.46,123.82,108.12c12.53,32.16,17.04,61.49,16.97,87.18H2018V-0.5H-25v935h2043v-511H1642z" />

                    <!-- End -->
                    <path id="st0_end" fill="#F2F8FD"
                        d="M1642,423.5c9.3,66.75-12.25,127.31-21,129c9.59,29.36-56.22,260.83-305,200
                    c-324.35-79.31-237.27-195.4-232-223.26c0,0-1.72-21.98,7-57.74c0,0,16.97-79.91,153-161s257.67-66.4,257.67-66.4
                    c23.05-7.68,166.63-57.11,138.33,109.4c-6.22,36.59,6.91,63.11,2.46,85.9H2018V-0.5H-25v935h2043v-511H1642z"
                        style="visibility: hidden;" />
                </g>
            </g>
            <g class="invisible sm:visible">
                <!-- Start -->
                <g fill="url(#gradient_SVG_3_)">
                    <g opacity="0.2">
                        <path id="st1_start"
                            d="M1679,417.5c0,0,0-190-210-282c-177.63-77.82-272.97,156.29-298.15,230.32c19.25-16.7,43.09-34.25,72.59-51.83
                        c136.03-81.09,257.23-68.89,257.23-68.89s77.61-10.46,123.82,108.12s-16.57,198.81-16.57,198.81S1535.12,694.08,1318,718.5
                        c-41.7,4.69-77.69-0.59-106-10c53.85,55.08,154.68,120.29,280,56C1685,665.5,1679,417.5,1679,417.5z" />
                    </g>
                </g>
                <g fill="url(#gradient_SVG_2_)">
                    <g opacity="0.5">
                        <path id="st2_start" d="M1594,207.5c-213.29-96.1-368.83,26.65-427.9,86.58c-17.02,17.27-31.29,37.04-42.43,58.57
                        C1044.11,506.47,1100,600.5,1100,600.5s0.47,1.17,1.58,3.29c0.67,1.27,2.57,0.32,1.98-0.98c-17.26-38.06-20.44-71.25-20.56-72.54
                        c0-0.03,0-0.05,0-0.08c0.01-1.01,0.24-20.11,8.72-54.89c0,0,15.7-80.22,151.72-161.31c134.11-79.95,253.81-69.21,257.16-68.89
                        c0.05,0.01,0.09,0,0.14,0c2.63-0.32,78.34-8.38,123.75,108.13c45.6,117.02-14.92,196.68-16.53,198.77
                        c-0.02,0.03-0.04,0.05-0.06,0.09c-1.54,2.91-74.68,138.86-289.47,163.01c-3.1,0.35-6.16,0.65-9.17,0.9
                        c-1.28,0.11-1.37,1.94-0.11,2.18c10.44,1.97,21.38,3.76,32.85,5.33c87.49,12.01,153.65,2.68,200.67-11.89
                        c53.53-16.59,98.13-54,124.26-103.57C1719.67,508.01,1797.72,299.29,1594,207.5z"
                            style="visibility: none;" />
                    </g>
                </g>
                <g fill="url(#gradient_SVG_1_)">
                    <path id="st3_start" d="M1665,334.5c-45.71-117.3-115-122-137.28-124.26c-3.67-0.37-7.37,0.02-11.05-0.16
                    c-28.83-1.41-152.25-1.91-288.67,79.42c-156,93-174,185-174,185c-0.89,3.67-1.71,7.18-2.45,10.54c-7.21,32.69-6.42,66.6,2.4,98.74
                    h41.91c-2.45-6.83-4.46-13.32-6.08-19.26c-6-21.92-6.92-44.93-2.79-67.27c1.19-6.42,2.73-13.75,4.73-21.94
                    c0,0,15.7-80.22,151.72-161.31c118.77-70.81,226.25-70.48,251.6-69.26c3.28,0.16,6.55,0.18,9.83,0.14
                    c16.75-0.19,79.82,6.24,119.62,108.36c40.49,103.89-2.68,178.34-14,195.19c-1.63,2.43-3.05,4.99-4.73,7.39
                    c-12.42,17.79-102.26,129.97-287.33,159.29c-124.69,19.75-187.89-58.02-214.88-112.28l-4.21-9.86l3.01,7.16
                    c-1.06-2.41-2.06-4.8-3.01-7.16c-1.11-2.77-11.34-31.46-11.34-35.46l-38,6c-1,4,6.76,29.79,8.24,33.99
                    c1.89,5.36,4.02,10.91,6.42,16.58c28.54,67.53,95.33,152.74,249.34,135.43c223.71-25.16,313.43-156.05,329.34-182.38
                    c1.74-2.88,3.54-5.72,5.42-8.5C1661.47,539.8,1711.64,454.19,1665,334.5z"
                        style="visibility: none;" />
                </g>
            </g>
            <g>
                <circle fill="#DFDFDB" cx="128.5" cy="446" r="11.5" />

                <g>
                    <circle fill="#4F4BFC" cx="1051" cy="367.5" r="33" />
                    <circle fill="#DBEAF2" cx="1051.61" cy="368.11" r="29.94" />
                </g>

                <g>
                    <circle fill="#4F4BFC" cx="1615" cy="734.5" r="17" />
                    <circle fill="#DBEAF2" cx="1615.31" cy="734.81" r="15.43" />
                </g>
                <circle fill="#DFDFDB" cx="635.5" cy="519" r="6.5" />
                <circle fill="#DFDFDB" cx="647.5" cy="183" r="10.5" />

                <g>
                    <circle fill="#0088CC" cx="1638" cy="163.5" r="23" />
                    <circle fill="#DBEAF2" cx="1638.43" cy="163.93" r="20.87" />
                </g>
            </g>
            <g>
                <g>
                    <circle fill="#4F4BFC" cx="264" cy="303.5" r="27" />
                    <circle fill="#DBEAF2" cx="264.5" cy="304" r="24.5" />
                </g>
                <g>
                    <circle fill="#0088CC" cx="857" cy="644.5" r="17" />
                    <circle fill="#DBEAF2" cx="857.31" cy="644.81" r="15.43" />
                </g>
                <circle fill="#DFDFDB" cx="958.5" cy="427" r="10.5" />
                <circle fill="#908DFA" cx="1576" cy="762.5" r="14" />
                <circle fill="#908DFA" cx="1139" cy="216.5" r="8" />
            </g>
</svg>